<?xml version="1.0" encoding="UTF-8"?>
<svg id="Layer_1" data-name="Layer 1" xmlns="http://www.w3.org/2000/svg" viewBox="0 0 1155.8 332.1">
  <defs>
    <style>
      .cls-1, .cls-2, .cls-3 {
        isolation: isolate;
      }

      .cls-2 {
        font-family: MadroneStd, 'Madrone Std';
      }

      .cls-2, .cls-4, .cls-3 {
        fill: #fdfaf5;
      }

      .cls-2, .cls-3 {
        font-size: 147px;
      }

      .cls-3 {
        font-family: Poppins-Medium, Poppins;
        font-weight: 500;
      }
    </style>
  </defs>
  <path class="cls-4" d="M166.07,161c18.9-23.6,21.2-65.3,19.7-80.2-1.6-14.9-8.7-17.3-11.8-17.3s-12.6-.8-18.9-3.9-5.5-11.8-19.7-12.6c-14.2-.8-32.3,13.4-37.8,18.1-7.1,3.9-19.7,7.1-23.6,16.5s6.3,27.5,7.9,31.5,15.7,23.6,20.5,30.7c-11.8-9.4-29.1-26.7-35.4-31.5s-22.8-8.7-32.3,7.9C12.67,124.1.87,135.1.07,141.4s5.5,17.3,11.8,23.6c-4.7,11-7.9,17.3-6.3,26s10.2,18.1,29.1,19.7,59-5.5,68.4-8.7c-19.7,7.9-47.2,23.6-54.3,29.1s-26,30.7,6.3,44.1c0,15.7,10.2,29.9,29.9,25.2,6.3,18.9,17.3,26.7,36.2,17.3,12.6,14.9,68.4,41.7,60.6-63.7,27.5,58.2,44.8,52.7,47.2,51.9s11.8-3.9,17.3-2.4c5.5,1.6,29.1,7.1,42.5-17.3-4.7-13.4-6.3-12.6-4.7-20.5,1.6-7.9,4.7-11.8,4.7-22.8s-12.6-21.2-34.6-26.7-32.3-7.9-43.3-14.9c20.5,4.7,103.8,19.7,88.1-35.4,18.1-14.2-2.4-35.4-19.7-37,.8-16.5-31.5-51.9-75.5,26,18.1-9.4,33-9.4,33-9.4,0,0-28.3,11-37,18.1,15.7-1.6,37.8-11,55.1-6.3-14.9,5.5-54.3,11.8-62.2,18.9,12.6,3.9,37-4.7,51.9,3.9-23.6-.8-57.4.8-66.9,14.2,11,7.1,47.2,15.7,52.7,34.6-20.5-15.7-43.3-23.6-54.3-25.2,4.7,7.1,27.5,24.4,29.9,36.2-18.9-14.9-19.7-25.2-42.5-34.6-8.7,8.7-10.2,31.5-11,47.2-5.5-16.5-3.9-33-2.4-46.4-10.2,4.7-29.9,39.3-33.8,50.4-.8-14.9,14.9-45.6,26-52.7-14.9,0-36.2,20.5-44.8,29.9,0-17.3,40.1-37.8,46.4-40.9-11.8-5.5-63.7-24.4-70-32.3,16.5,1.6,41.7,16.5,60.6,16.5-5.5-11.8-42.5-25.2-53.5-28.3,21.2-4.7,53.5,15.7,60.6,23.6,1.6-12.6-13.4-30.7-22-41.7,15.7,9.4,25.2,26,29.1,32.3,0-14.2-13.4-40.9-23.6-53.5,18.1,11,28.3,34.6,29.9,48,4.7-14.9,1.6-37-8.7-57.4,18.9,13.4,17.3,37.8,19.7,61.4l.1-.4Z"/>
  <path class="cls-4" d="M246.37,19.4s-39,110-90,158c-12,12-7,28,15,8S247.37,58.4,246.37,19.4Z"/>
  <g>
    <path class="cls-4" d="M258.77,39.6c0,3.7-3,6.7-6.7,6.7s-5.2-3-5.2-6.7,2.3-4.5,6-4.5,6,.8,6,4.5h-.1Z"/>
    <ellipse class="cls-4" cx="249.07" cy="6.7" rx="6" ry="6.7"/>
    <ellipse class="cls-4" cx="220.27" cy="47.4" rx="6.3" ry="5.6"/>
    <circle class="cls-4" cx="249.77" cy="57.9" r="5.6"/>
    <circle class="cls-4" cx="227.37" cy="32.9" r="6"/>
    <ellipse class="cls-4" cx="234.07" cy="17.2" rx="6.7" ry="5.2"/>
    <circle class="cls-4" cx="255.77" cy="23.2" r="6"/>
  </g>
  <g class="cls-1">
    <text class="cls-3" transform="translate(343.17 239)"><tspan x="0" y="0">Shangri</tspan></text>
    <text class="cls-2" transform="translate(917.37 239)"><tspan x="0" y="0">-</tspan></text>
    <text class="cls-3" transform="translate(990.87 239)"><tspan x="0" y="0">La</tspan></text>
  </g>
</svg>